<svg width="103" height="102" viewBox="0 0 103 102" fill="none" xmlns="http://www.w3.org/2000/svg">
<circle cx="51.5" cy="51" r="50" fill="#000000"/>
<path d="M51.5 1C79.9 1 103 24.1 103 52.5C103 80.9 79.9 104 51.5 104C23.1 104 0 80.9 0 52.5C0 24.1 23.1 1 51.5 1ZM51.5 4C25.4 4 4 25.4 4 51.5C4 77.6 25.4 99 51.5 99C77.6 99 99 77.6 99 51.5C99 25.4 77.6 4 51.5 4Z" fill="#DFDFDF"/>
<path d="M51.5 20C63.4 20 73 29.6 73 41.5C73 53.4 63.4 63 51.5 63C39.6 63 30 53.4 30 41.5C30 29.6 39.6 20 51.5 20Z" fill="#FFFFFF"/>
<path d="M51.5 66C63.4 66 73 75.6 73 87.5C73 99.4 63.4 109 51.5 109C39.6 109 30 99.4 30 87.5C30 75.6 39.6 66 51.5 66Z" fill="#FFFFFF"/>
<path d="M20 51.5C20 63.4 29.6 73 41.5 73C53.4 73 63 63.4 63 51.5C63 39.6 53.4 30 41.5 30C29.6 30 20 39.6 20 51.5Z" fill="#FFFFFF"/>
<path d="M66 51.5C66 63.4 75.6 73 87.5 73C99.4 73 109 63.4 109 51.5C109 39.6 99.4 30 87.5 30C75.6 30 66 39.6 66 51.5Z" fill="#FFFFFF"/>
</svg>
